<svg width="920" height="680" viewBox="0 0 920 680" fill="none" xmlns="http://www.w3.org/2000/svg">
  <rect width="920" height="680" rx="28" fill="#F8FAFE"/>
  <rect x="28" y="28" width="864" height="624" rx="22" fill="white" stroke="#DDE4F0"/>
  <rect x="28" y="28" width="864" height="68" rx="22" fill="#F7F9FD"/>
  <circle cx="64" cy="62" r="8" fill="#FF6B5F"/>
  <circle cx="91" cy="62" r="8" fill="#FFCF5A"/>
  <circle cx="118" cy="62" r="8" fill="#00A878"/>
  <rect x="160" y="50" width="210" height="24" rx="12" fill="#E9EEF7"/>
  <rect x="704" y="48" width="126" height="28" rx="14" fill="#111827"/>
  <rect x="56" y="126" width="250" height="484" rx="18" fill="#111827"/>
  <rect x="80" y="154" width="68" height="12" rx="6" fill="#7B61FF"/>
  <rect x="80" y="190" width="154" height="12" rx="6" fill="#E5E7EB" opacity="0.92"/>
  <rect x="80" y="222" width="112" height="12" rx="6" fill="#93C5FD"/>
  <rect x="104" y="254" width="146" height="12" rx="6" fill="#E5E7EB" opacity="0.8"/>
  <rect x="104" y="286" width="104" height="12" rx="6" fill="#86EFAC"/>
  <rect x="104" y="318" width="158" height="12" rx="6" fill="#E5E7EB" opacity="0.8"/>
  <rect x="80" y="364" width="170" height="12" rx="6" fill="#93C5FD"/>
  <rect x="104" y="396" width="126" height="12" rx="6" fill="#E5E7EB" opacity="0.8"/>
  <rect x="104" y="428" width="152" height="12" rx="6" fill="#FCA5A5"/>
  <rect x="80" y="500" width="196" height="54" rx="14" fill="#1F2937"/>
  <rect x="104" y="520" width="108" height="12" rx="6" fill="#E5E7EB" opacity="0.84"/>
  <rect x="336" y="126" width="528" height="188" rx="20" fill="#EEF6FF"/>
  <rect x="368" y="160" width="118" height="16" rx="8" fill="#0B84FF"/>
  <rect x="368" y="200" width="284" height="22" rx="11" fill="#111827"/>
  <rect x="368" y="238" width="364" height="12" rx="6" fill="#7B8496"/>
  <rect x="368" y="264" width="260" height="12" rx="6" fill="#A3ADBD"/>
  <rect x="734" y="166" width="82" height="82" rx="18" fill="white" opacity="0.82"/>
  <path d="M760 207L779 226L811 188" stroke="#00A878" stroke-width="10" stroke-linecap="round" stroke-linejoin="round"/>
  <rect x="336" y="340" width="252" height="270" rx="20" fill="#FBFCFF" stroke="#DDE4F0"/>
  <rect x="368" y="372" width="82" height="14" rx="7" fill="#FF6B5F"/>
  <rect x="368" y="412" width="158" height="18" rx="9" fill="#111827"/>
  <rect x="368" y="456" width="168" height="112" rx="16" fill="#F1F5F9"/>
  <rect x="392" y="484" width="120" height="12" rx="6" fill="#B7C2D2"/>
  <rect x="392" y="516" width="88" height="12" rx="6" fill="#0B84FF" opacity="0.8"/>
  <rect x="612" y="340" width="252" height="270" rx="20" fill="#FBFCFF" stroke="#DDE4F0"/>
  <rect x="644" y="372" width="82" height="14" rx="7" fill="#00A878"/>
  <rect x="644" y="412" width="146" height="18" rx="9" fill="#111827"/>
  <rect x="644" y="456" width="188" height="22" rx="11" fill="#E5EAF2"/>
  <rect x="644" y="496" width="144" height="22" rx="11" fill="#E5EAF2"/>
  <rect x="644" y="536" width="168" height="22" rx="11" fill="#E5EAF2"/>
  <path d="M28 196C151 146 228 139 330 180C449 228 510 206 620 166C731 125 806 148 892 194V652H28V196Z" fill="url(#softWash)" opacity="0.42"/>
  <defs>
    <linearGradient id="softWash" x1="54" y1="193" x2="829" y2="563" gradientUnits="userSpaceOnUse">
      <stop stop-color="#0B84FF"/>
      <stop offset="0.52" stop-color="#7B61FF"/>
      <stop offset="1" stop-color="#00A878"/>
    </linearGradient>
  </defs>
</svg>
